<?xml version="1.0" encoding="iso-8859-1"?>
<!-- Generator: Adobe Illustrator 19.0.0, SVG Export Plug-In . SVG Version: 6.00 Build 0)  -->
<svg version="1.1" id="Layer_1" xmlns="http://www.w3.org/2000/svg" xmlns:xlink="http://www.w3.org/1999/xlink" x="0px" y="0px"
	 viewBox="0 0 512 512" style="enable-background:new 0 0 512 512;" xml:space="preserve">
<path style="fill:#BEE178;" d="M16.516,280.774c0,48.171,75.388,140.387,239.484,140.387s239.484-92.215,239.484-140.387H16.516z"/>
<path style="fill:#D2F0A0;" d="M256.001,284.903H16.516c0,0,0,37.161,41.29,37.161c33.032,0,115.613-18.581,198.194-18.581
	s165.162,18.581,198.194,18.581c41.29,0,41.29-37.161,41.29-37.161H256.001z"/>
<path style="fill:#82C35F;" d="M500.458,242.797c-38.006-28.088-118.687-74.975-161.877-92.501
	c-19.267-7.818-33.032-18.168-82.581-18.168s-63.314,10.349-82.581,18.168c-43.19,17.526-123.871,64.413-161.877,92.501
	C5.012,247.623,0,255.363,0,264.734c0,13.419,9.065,24.298,20.248,24.298h471.504c11.182,0,20.248-10.879,20.248-24.298
	C512,255.363,506.989,247.623,500.458,242.797z"/>
<g>
	<path style="fill:#5A9646;" d="M214.71,247.742c-4.565,0-8.258-3.693-8.258-8.258v-8.258c0-4.565,3.693-8.258,8.258-8.258
		s8.258,3.693,8.258,8.258v8.258C222.968,244.048,219.275,247.742,214.71,247.742z"/>
	<path style="fill:#5A9646;" d="M297.291,247.742c-4.565,0-8.258-3.693-8.258-8.258v-8.258c0-4.565,3.693-8.258,8.258-8.258
		c4.565,0,8.258,3.693,8.258,8.258v8.258C305.549,244.048,301.856,247.742,297.291,247.742z"/>
</g>
<path style="fill:#96CD78;" d="M94.968,227.774c70.194,0,93.708-38.28,101.408-56.714c2.876-6.885,2.327-14.686-1.442-21.125
	C182.427,128.565,146.552,78.836,90.178,93.5c-14.69,3.821-24.318,17.977-23.392,33.128
	C68.911,161.385,76.822,227.774,94.968,227.774z"/>
<path style="fill:#73AF55;" d="M148.645,198.193c0,0-24.032,29.58-53.678,29.58s-53.678-27.73-53.678-61.936
	s24.032-61.936,53.678-61.936C123.871,103.902,148.645,163.987,148.645,198.193z"/>
<path style="fill:#464655;" d="M70.194,140.387c-9.114,0-17.688,1.085-25.206,2.985c-2.357,6.972-3.698,14.532-3.698,22.466
	c0,7.935,1.341,15.494,3.698,22.466c7.518,1.9,16.092,2.985,25.206,2.985c29.645,0,45.419-11.395,45.419-25.451
	S99.839,140.387,70.194,140.387z"/>
<path style="fill:#96CD78;" d="M417.033,227.774c-70.194,0-93.708-38.28-101.408-56.714c-2.876-6.885-2.327-14.686,1.442-21.125
	c12.507-21.369,48.382-71.098,104.756-56.434c14.69,3.821,24.318,17.977,23.392,33.128
	C443.089,161.385,435.179,227.774,417.033,227.774z"/>
<path style="fill:#73AF55;" d="M363.356,198.193c0,0,24.032,29.58,53.678,29.58s53.678-27.73,53.678-61.936
	s-24.032-61.936-53.678-61.936C388.13,103.902,363.356,163.987,363.356,198.193z"/>
<path style="fill:#464655;" d="M441.807,140.387c9.114,0,17.688,1.085,25.206,2.985c2.356,6.972,3.698,14.532,3.698,22.466
	c0,7.935-1.341,15.494-3.698,22.466c-7.518,1.9-16.092,2.985-25.206,2.985c-29.645,0-45.419-11.395-45.419-25.451
	S412.162,140.387,441.807,140.387z"/>
<g>
</g>
<g>
</g>
<g>
</g>
<g>
</g>
<g>
</g>
<g>
</g>
<g>
</g>
<g>
</g>
<g>
</g>
<g>
</g>
<g>
</g>
<g>
</g>
<g>
</g>
<g>
</g>
<g>
</g>
</svg>
