<?xml version="1.0" standalone="no"?><!DOCTYPE svg PUBLIC "-//W3C//DTD SVG 1.1//EN" "http://www.w3.org/Graphics/SVG/1.1/DTD/svg11.dtd"><svg t="1599217243683" class="icon" viewBox="0 0 1024 1024" version="1.1" xmlns="http://www.w3.org/2000/svg" p-id="811" xmlns:xlink="http://www.w3.org/1999/xlink" width="200" height="200"><defs><style type="text/css"></style></defs><path d="M917.333333 341.333333h-149.333333a21.333333 21.333333 0 0 0-21.333333 21.333334s0 320-341.333334 320h-21.333333v64h64s362.666667 0 362.666667-341.333334c0 0 64-21.333333 106.666666-21.333333a21.333333 21.333333 0 1 0 0-42.666667z" fill="#DCE775" p-id="812"></path><path d="M725.333333 192c-85.333333 0-213.333333 106.666667-213.333333 106.666667s-192 0-277.333333 64-170.666667 234.666667-170.666667 256 0 85.333333 106.666667 85.333333l213.333333-21.333333h21.333333c341.333333 0 341.333333-320 341.333334-320a21.333333 21.333333 0 0 1 21.333333-21.333334h170.666667a21.333333 21.333333 0 0 0 21.333333-21.333333s0-128-234.666667-128z" fill="#7CB342" p-id="813"></path><path d="M687.914667 803.242667S606.869333 701.738667 597.333333 682.666667c-21.333333-42.666667-21.333333-106.666667-21.333333-106.666667l128-85.333333-21.333333 149.333333 64 128s-37.418667 13.909333-58.752 35.242667zM577.173333 771.584c-17.664-11.776-45.866667-17.984-78.421333-20.714667C421.397333 733.824 305.941333 725.333333 248.896 725.333333 158.549333 725.333333 85.333333 744.448 85.333333 768s73.216 42.666667 163.562667 42.666667c2.154667 0 4.010667-0.149333 6.122667-0.170667 0.341333 0 0.64 0.170667 0.981333 0.170667a18.858667 18.858667 0 0 0 3.584-0.341334c59.072-1.130667 101.056-11.029333 144.149333-16.874666 65.322667-4.010667 126.442667-1.92 149.781334 13.632a21.333333 21.333333 0 1 0 23.658666-35.498667z" fill="#7CB342" p-id="814"></path><path d="M736 245.333333m-74.666667 0a74.666667 74.666667 0 1 0 149.333334 0 74.666667 74.666667 0 1 0-149.333334 0Z" fill="#CFD8DC" p-id="815"></path><path d="M778.666667 245.333333m-32 0a32 32 0 1 0 64 0 32 32 0 1 0-64 0Z" fill="#37474F" p-id="816"></path><path d="M704 245.333333c0-33.792 22.592-61.973333 53.333333-71.210666a73.450667 73.450667 0 0 0-21.333333-3.456C694.741333 170.666667 661.333333 204.074667 661.333333 245.333333s33.408 74.666667 74.666667 74.666667c7.466667 0 14.549333-1.408 21.333333-3.456-30.741333-9.237333-53.333333-37.418667-53.333333-71.210667z" fill="#558B2F" p-id="817"></path><path d="M864 778.666667m-32 0a32 32 0 1 0 64 0 32 32 0 1 0-64 0Z" fill="#558B2F" p-id="818"></path><path d="M911.082667 262.250667C919.424 270.592 917.333333 298.666667 917.333333 298.666667s-28.074667 2.090667-36.416-6.250667a21.312 21.312 0 1 1 30.165334-30.165333z" fill="#558B2F" p-id="819"></path><path d="M565.333333 778.666667m-32 0a32 32 0 1 0 64 0 32 32 0 1 0-64 0Z" fill="#558B2F" p-id="820"></path><path d="M501.333333 778.666667m-32 0a32 32 0 1 0 64 0 32 32 0 1 0-64 0Z" fill="#558B2F" p-id="821"></path><path d="M248.896 725.333333c35.157333 0 92.458667 3.242667 149.376 9.706667C478.912 693.034667 533.333333 636.992 533.333333 597.333333c0-64-70.72-85.333333-188.586666-64-138.688 25.109333-259.306667 170.666667-259.306667 213.333334 0 0-2.794667 8 0.661333 17.365333C93.76 742.336 163.669333 725.333333 248.896 725.333333z" fill="#558B2F" p-id="822"></path></svg>