<?xml version="1.0" encoding="UTF-8" standalone="no"?>
<svg
   id="Capa_1"
   enable-background="new 0 0 512 512"
   height="512"
   viewBox="0 0 512 512"
   width="512"
   version="1.1"
   sodipodi:docname="pi（复件）.svg"
   inkscape:version="1.1 (c4e8f9ed74, 2021-05-24)"
   xmlns:inkscape="http://www.inkscape.org/namespaces/inkscape"
   xmlns:sodipodi="http://sodipodi.sourceforge.net/DTD/sodipodi-0.dtd"
   xmlns="http://www.w3.org/2000/svg"
   xmlns:svg="http://www.w3.org/2000/svg">
  <defs
     id="defs57" />
  <sodipodi:namedview
     id="namedview55"
     pagecolor="#ffffff"
     borderopacity="1.0"
     inkscape:pageshadow="2"
     inkscape:pageopacity="0.0"
     inkscape:pagecheckerboard="0"
     showgrid="false"
     inkscape:zoom="1.5761719"
     inkscape:cx="140.21313"
     inkscape:cy="256"
     inkscape:window-width="1920"
     inkscape:window-height="1007"
     inkscape:window-x="0"
     inkscape:window-y="0"
     inkscape:window-maximized="1"
     inkscape:current-layer="Capa_1" />
  <path
     style="fill:#ffffff;stroke-width:0.634449"
     d="m 149.71779,379.15815 c -7.53267,-4.12958 -10.2592,-12.26114 -6.58405,-19.63621 2.71244,-5.44315 7.94469,-8.34126 15.1034,-8.36567 5.43943,-0.0185 11.82308,-1.72162 18.13794,-4.83892 11.37506,-5.61527 20.30812,-16.70594 23.49622,-29.17126 1.20797,-4.72315 1.2489,-7.36403 1.2489,-80.59826 v -75.71512 h -15.26014 c -17.12175,0 -21.23653,0.58548 -28.83404,4.10268 -15.17978,7.02736 -24.99412,21.31369 -26.10503,38.00003 -0.46011,6.91103 -2.00213,11.02646 -5.17554,13.81275 -3.06068,2.68731 -5.7978,3.72533 -9.7796,3.70877 -4.25721,-0.0177 -7.7979,-1.62795 -10.72943,-4.87956 -3.36626,-3.73382 -3.96516,-6.17555 -3.53625,-14.41743 0.91851,-17.64986 8.14824,-33.77753 21.06563,-46.99201 8.98433,-9.19097 17.93039,-14.9021 29.44966,-18.80057 11.54024,-3.90557 5.46389,-3.71929 121.32234,-3.71929 116.10495,0 108.27427,-0.25645 112.42364,3.68173 3.01393,2.86053 4.48432,6.33403 4.48432,10.59336 0,5.82481 -2.926,10.43668 -8.50772,13.4096 -2.07462,1.10498 -4.48292,1.19514 -36.63941,1.37176 l -34.41883,0.18903 v 84.96188 84.96188 l 1.35572,3.67189 c 3.62039,9.80552 11.85185,15.95293 22.16023,16.54968 10.81517,0.62608 19.74758,-4.61153 24.52792,-14.3822 1.53382,-3.13502 1.7268,-4.38212 2.13636,-13.80592 0.38032,-8.75097 0.66468,-10.80259 1.83127,-13.21244 5.25977,-10.86523 20.38573,-10.88104 26.24239,-0.0274 1.26277,2.34018 1.36426,3.40233 1.30344,13.64064 -0.055,9.24493 -0.29478,11.94646 -1.43336,16.14419 -4.92697,18.1648 -18.32099,32.43253 -36.09587,38.45043 -5.501,1.86244 -7.12499,2.12169 -14.74681,2.35419 -16.71463,0.50988 -29.15977,-4.31588 -40.57918,-15.73511 -9.98693,-9.98681 -14.93983,-21.01783 -15.92951,-35.47804 -0.2995,-4.37594 -0.55515,-44.00087 -0.56812,-88.05539 l -0.0236,-80.09913 H 256 230.93928 l -0.0131,69.94796 c -0.007,38.47137 -0.28755,74.08773 -0.62304,79.14745 -0.74097,11.17527 -2.60512,18.62073 -6.93063,27.6811 -3.9243,8.21998 -7.29711,13.15646 -13.30952,19.47994 -9.53722,10.03066 -22.46434,17.75735 -35.34347,21.12521 -8.69862,2.27467 -21.68026,2.7647 -25.00176,0.94378 z"
     id="path897" />
  <path
     style="fill:#09b3eb;stroke-width:0.634449;fill-opacity:1"
     d="m 235.38042,510.6685 c -1.22132,-0.15046 -5.78935,-0.71313 -10.15118,-1.25038 C 179.11384,503.73807 134.28795,485.08873 98.423782,456.66206 47.689919,416.44935 14.280073,359.95116 4.1500503,297.23915 1.5492277,281.13822 1.2008976,276.27513 1.1962006,256 1.1902296,230.22629 2.9062359,215.68042 8.6434938,192.87236 24.057795,131.59393 63.346371,76.980582 117.1967,41.97725 149.28873,21.117056 181.24301,9.1707085 221.34676,3.0399637 c 10.57811,-1.6170983 12.42268,-1.7097105 34.33601,-1.7239388 24.79711,-0.016101 29.16938,0.3372067 47.19703,3.8138215 51.87324,10.0037056 96.71011,33.7209816 133.62081,70.6811676 32.9985,33.042736 55.93726,73.510096 67.15009,118.462636 1.37448,5.51033 2.86182,12.08868 3.30521,14.61854 0.44338,2.52986 1.06278,4.59975 1.37644,4.59975 0.31366,0 0.39938,0.27655 0.19048,0.61454 -0.20889,0.33799 0.11403,3.97814 0.7176,8.08921 0.88841,6.05111 1.12116,12.70071 1.22208,34.91459 0.0686,15.09195 -0.0721,27.4399 -0.31261,27.4399 -0.2405,0 -0.79153,2.83858 -1.22451,6.30796 -3.22917,25.87476 -12.57592,55.66607 -25.20664,80.3423 -34.80398,67.99539 -97.63068,117.0642 -171.25283,133.75163 -19.13932,4.33817 -29.38794,5.42729 -53.92813,5.73093 -11.51524,0.14249 -21.93606,0.13596 -23.15737,-0.0145 z M 169.39777,380.31128 c 6.5403,-1.05543 17.29034,-4.91447 23.32167,-8.37198 10.07006,-5.77275 17.47349,-12.30013 24.11355,-21.26022 3.81651,-5.14999 8.76004,-13.95181 8.16834,-14.54351 -0.19036,-0.19036 0.0221,-0.71434 0.47216,-1.16439 1.02689,-1.02689 3.91255,-9.6828 4.88076,-14.64045 0.5163,-2.64374 0.81642,-26.4885 1.0233,-81.30223 l 0.29272,-77.56134 h 24.37799 24.37801 l 0.0438,79.14746 c 0.0241,43.5311 0.27209,83.28723 0.55113,88.34696 0.39803,7.21739 0.8644,10.29309 2.16455,14.27509 2.61578,8.01146 6.93875,15.02975 13.10175,21.27059 6.06026,6.1368 10.78118,9.45022 17.7614,12.46602 8.45713,3.6539 11.60162,4.16653 23.73132,3.86878 10.11919,-0.24839 11.19555,-0.39369 15.99471,-2.1592 14.15267,-5.20643 25.46493,-15.14402 31.93656,-28.05562 1.11083,-2.21623 1.87184,-4.17735 1.69114,-4.35805 -0.18071,-0.18071 0.0366,-0.69372 0.4829,-1.14002 1.91056,-1.91055 3.22103,-10.4858 3.19792,-20.92595 -0.0265,-11.96579 -0.14404,-13.44656 -1.23397,-15.54399 -1.0901,-2.09776 -4.55366,-5.3147 -7.10743,-6.60133 -7.08313,-3.56859 -16.92073,-0.35953 -20.51883,6.69332 -0.98153,1.92397 -1.36297,4.57997 -1.82399,12.70072 -0.56592,9.96848 -0.64933,10.4024 -2.85964,14.87465 -2.50967,5.07797 -6.17787,8.78719 -11.44787,11.57592 -2.87479,1.52124 -3.82667,1.67865 -10.15118,1.67865 -6.5634,0 -7.18471,-0.11333 -10.43497,-1.90335 -4.51236,-2.48509 -9.5716,-7.48494 -11.37935,-11.24574 -1.10281,-2.29428 -1.57389,-4.82576 -2.00706,-10.78563 -0.31131,-4.28324 -0.57477,-42.79425 -0.58546,-85.58004 l -0.0194,-77.79232 2.94356,-0.40346 c 1.61897,-0.2219 15.82269,-0.4128 31.56382,-0.42422 32.51276,-0.0236 36.29428,-0.30507 39.55531,-2.94445 4.51946,-3.65789 6.87074,-11.32514 5.2791,-17.21449 -0.87506,-3.23783 -4.38674,-7.3406 -7.75297,-9.05792 -2.36194,-1.20497 -4.65358,-1.22662 -112.65789,-1.06434 l -110.24692,0.16565 -5.07559,1.7921 c -7.08681,2.50223 -17.18787,7.38754 -21.92204,10.60245 -9.26783,6.29366 -19.67297,18.19245 -24.5951,28.12572 -4.24977,8.5764 -8.21876,22.78408 -7.58022,27.13471 0.14668,0.99943 -0.0105,1.81714 -0.34944,1.81714 -1.065631,0 -0.022,9.12928 1.35137,11.82131 5.00484,9.8103 17.76671,11.79407 25.31133,3.93452 2.16283,-2.25311 4.01436,-6.60433 3.97514,-9.34182 -0.0842,-5.87381 2.44052,-15.2168 5.92867,-21.93997 4.89356,-9.43203 13.46601,-16.8437 23.96077,-20.71629 4.61,-1.7011 6.59662,-2.04189 14.5391,-2.49406 5.05973,-0.28806 12.73728,-0.54078 17.06123,-0.56162 l 7.86173,-0.0379 -0.42961,75.65799 c -0.44219,77.87611 -0.46811,79.88029 -1.03987,80.41636 -0.18609,0.17447 -1.12199,2.18763 -2.07977,4.47368 -5.07867,12.12187 -16.15091,22.50608 -27.71819,25.9958 -2.26816,0.68427 -7.18173,1.6658 -10.91905,2.18117 -3.73732,0.51537 -7.8771,1.38901 -9.19951,1.94141 -4.44407,1.8564 -7.7631,6.12555 -8.67528,11.15868 -0.47008,2.59374 0.66078,8.81183 1.60256,8.81183 0.34063,0 0.46455,0.25044 0.27537,0.55653 -0.97545,1.57832 5.82054,8.13137 7.68919,7.4143 0.45524,-0.17469 0.82771,-0.0411 0.82771,0.29691 0,0.82784 13.16233,0.78453 18.39901,-0.0605 z"
     id="path935" />
</svg>
