<?xml version="1.0" encoding="UTF-8" standalone="no"?>
<svg
   id="Capa_1"
   enable-background="new 0 0 512 512"
   height="512"
   viewBox="0 0 512 512"
   width="512"
   version="1.1"
   sodipodi:docname="pi-empty.svg"
   inkscape:version="1.1 (c4e8f9ed74, 2021-05-24)"
   xmlns:inkscape="http://www.inkscape.org/namespaces/inkscape"
   xmlns:sodipodi="http://sodipodi.sourceforge.net/DTD/sodipodi-0.dtd"
   xmlns="http://www.w3.org/2000/svg"
   xmlns:svg="http://www.w3.org/2000/svg">
  <defs
     id="defs11" />
  <sodipodi:namedview
     id="namedview9"
     pagecolor="#ffffff"
     bordercolor="#666666"
     borderopacity="1.0"
     inkscape:pageshadow="2"
     inkscape:pageopacity="0.0"
     inkscape:pagecheckerboard="0"
     showgrid="false"
     inkscape:zoom="1.2890625"
     inkscape:cx="256"
     inkscape:cy="255.61212"
     inkscape:window-width="1920"
     inkscape:window-height="1007"
     inkscape:window-x="0"
     inkscape:window-y="0"
     inkscape:window-maximized="1"
     inkscape:current-layer="Capa_1" />
  <g
     id="g6">
    <path
       d="m437.02 74.98c-48.353-48.351-112.64-74.98-181.02-74.98s-132.667 26.629-181.02 74.98c-48.351 48.353-74.98 112.64-74.98 181.02s26.629 132.667 74.98 181.02c48.353 48.351 112.64 74.98 181.02 74.98s132.667-26.629 181.02-74.98c48.351-48.353 74.98-112.64 74.98-181.02s-26.629-132.667-74.98-181.02zm-181.02 407.02c-124.617 0-226-101.383-226-226s101.383-226 226-226 226 101.383 226 226-101.383 226-226 226z"
       id="path2" />
    <path
       d="m376 161c8.284 0 15-6.716 15-15s-6.716-15-15-15h-200c-41.355 0-75 33.645-75 75 0 8.284 6.716 15 15 15s15-6.716 15-15c0-24.813 20.187-45 45-45h25v145c0 24.813-20.187 45-45 45-8.284 0-15 6.716-15 15s6.716 15 15 15c41.355 0 75-33.645 75-75v-145h50v165c0 30.327 24.673 55 55 55s55-24.673 55-55v-10c0-8.284-6.716-15-15-15s-15 6.716-15 15v10c0 13.785-11.215 25-25 25s-25-11.215-25-25v-165z"
       id="path4" />
  </g>
  <path
     style="fill:#808080;stroke-width:0.775758"
     d="M 234.27879,510.73576 C 193.03132,507.39118 151.21874,492.86418 116.00687,469.64438 76.683264,443.71319 47.143204,410.19213 26.331145,367.88341 7.3589163,329.31489 -0.93158669,288.81557 0.88695187,243.58788 3.5796581,176.61933 34.619136,111.18765 85.025528,66.222483 131.40174,24.852456 186.71497,2.6265899 248.24242,0.63895824 340.45893,-2.3400771 426.80679,44.792057 475.17721,124.50909 c 21.3163,35.13042 34.26216,78.03493 35.93041,119.07879 1.83668,45.18766 -6.45577,85.70511 -25.43876,124.29553 -20.90714,42.502 -50.99986,76.52094 -90.5845,102.40314 -47.15568,30.83247 -103.77202,45.07381 -160.80557,40.44921 z m 43.55417,-29.40056 c 68.29563,-6.78504 128.66265,-43.18809 166.99888,-100.70512 19.16333,-28.75135 31.19815,-61.251 35.85745,-96.83192 1.60279,-12.23976 1.82585,-40.38967 0.41698,-52.6224 C 472.48063,156.28217 428.17624,91.262472 361.50303,55.649889 336.95621,42.538541 306.84598,33.547191 277.83296,30.664801 c -10.32388,-1.025659 -33.34204,-1.025659 -43.66592,0 C 181.48905,35.898262 133.05532,58.847073 95.806061,96.222829 59.553044,132.59895 36.740995,180.03158 30.902367,231.17576 c -1.253736,10.98224 -1.253736,38.66624 0,49.64848 8.675454,75.9937 54.780205,142.51649 122.683343,177.01511 25.54394,12.97777 52.58119,20.72003 83.02035,23.77333 6.38528,0.6405 33.84736,0.45566 41.2269,-0.27748 z"
     id="path865" />
  <path
     style="fill:#808080;stroke-width:0.775758"
     d="M 229.62424,509.98716 C 149.57766,501.09773 77.451714,454.8292 36.856384,386.32727 8.0042031,337.64113 -3.5981162,282.99734 2.7747898,225.81216 9.4983284,165.4807 40.358778,106.32356 86.170709,65.948543 125.21696,31.536252 168.72598,11.212314 219.92727,3.4681673 c 13.94009,-2.1084266 43.89889,-2.92656756 58.29247,-1.591902 60.7948,5.6372864 115.09549,31.0926077 158.15438,74.1403137 40.99175,40.981111 65.87904,92.323331 72.96121,150.518181 1.77779,14.60823 1.78315,44.03912 0.0107,58.94403 -6.81176,57.28264 -32.30792,109.88043 -72.96008,150.51445 -34.70677,34.69128 -77.44914,58.28739 -124.9258,68.96584 -18.69901,4.20578 -28.71972,5.2536 -52.74502,5.5153 -12.37334,0.13478 -25.46425,-0.0845 -29.09091,-0.48722 z m 60.70303,-29.75604 c 4.58667,-0.76751 8.3394,-1.68981 8.3394,-2.04956 0,-0.35974 0.49159,-0.46544 1.09243,-0.23487 1.52978,0.58703 16.07189,-2.99618 27.6106,-6.80331 62.22332,-20.53025 113.75656,-68.66418 138.4383,-129.30645 4.31977,-10.61356 9.14787,-25.64733 8.6518,-26.94007 -0.21162,-0.55147 -0.0669,-1.11251 0.32161,-1.24674 0.9206,-0.31808 4.83063,-18.42501 4.36403,-20.20931 -0.19677,-0.75245 -0.0845,-1.36808 0.24959,-1.36808 0.64432,0 2.24057,-11.71944 2.48306,-18.23031 0.14613,-3.92364 0.15361,-31.13457 0.0104,-37.69282 -0.33309,-15.25054 -7.6485,-45.26946 -16.08046,-65.98653 C 443.3549,114.9965 397.34901,68.699996 343.00057,46.579881 328.96892,40.868923 305.87905,33.969056 303.65518,34.822433 c -0.55521,0.213058 -1.11931,0.08882 -1.25354,-0.276092 -0.13424,-0.364908 -4.78225,-1.476501 -10.32891,-2.470209 -9.19031,-1.646479 -12.32121,-1.807398 -35.29697,-1.814163 -20.58573,-0.0061 -26.84916,0.250885 -34.13334,1.400261 -4.90666,0.774226 -9.02066,1.683489 -9.14221,2.020584 -0.12155,0.337095 -1.08155,0.448395 -2.13334,0.247334 -1.08237,-0.206909 -1.91232,-2.03e-4 -1.91232,0.476281 0,0.463016 -0.49609,0.651482 -1.10241,0.418814 -1.38006,-0.529577 -16.05878,3.355585 -26.78875,7.090443 -65.3005,22.729615 -117.239109,74.668254 -139.656675,139.656754 -9.097906,26.37482 -12.904794,50.74096 -12.173729,77.91847 0.189372,7.04 0.369511,14.40177 0.400308,16.35949 0.08533,5.42423 2.278293,19.37897 4.743681,30.18596 17.423888,76.37741 72.845925,138.33879 146.729255,164.0421 5.65853,1.96856 10.74835,3.40263 11.3107,3.18683 0.56235,-0.21579 1.02246,-0.0847 1.02246,0.29138 0,1.26244 20.2012,5.49864 38.4,8.0525 1.28,0.17962 12.97455,0.25702 25.98788,0.17201 18.60845,-0.12158 25.44129,-0.45256 32,-1.55006 z"
     id="path941" />
  <path
     style="fill:#757575;stroke-width:0.775758;fill-opacity:1"
     d="m 150.077,379.05093 c -3.91863,-1.77999 -7.04292,-5.42714 -8.14034,-9.50263 -1.00951,-3.74905 -0.44326,-6.96186 1.96636,-11.15664 2.62334,-4.56685 6.53172,-6.42982 15.42364,-7.35187 12.88891,-1.33651 21.26396,-5.31348 29.45208,-13.9856 5.26948,-5.58095 8.95329,-11.90136 11.07031,-18.99358 1.28613,-4.30872 1.40854,-10.3176 1.64736,-80.87273 l 0.258,-76.21818 -16.51357,0.009 c -11.94819,0.007 -17.68342,0.32053 -20.74506,1.1353 -13.83525,3.68187 -26.07535,14.78828 -31.10185,28.22115 -0.90139,2.40889 -2.10526,8.15525 -2.67527,12.7697 -0.78121,6.32424 -1.48222,9.04923 -2.84722,11.06779 -2.08236,3.07942 -8.37733,6.53815 -11.85406,6.51314 -5.81975,-0.0419 -13.04876,-5.86007 -14.07451,-11.32775 -0.81621,-4.35079 0.19181,-15.48711 2.02553,-22.37749 4.81073,-18.07674 17.77161,-35.20926 33.98519,-44.92379 6.9851,-4.1852 18.73995,-8.5085 26.50702,-9.749 3.30689,-0.52815 41.08801,-0.80148 109.76969,-0.79415 100.61512,0.0107 104.85265,0.0681 107.92036,1.46121 3.29747,1.49744 6.67034,5.25287 7.67312,8.54343 0.89642,2.9415 0.55168,8.34225 -0.68345,10.70709 -1.28829,2.46664 -4.64084,5.74026 -7.4676,7.29179 -1.54318,0.84701 -9.03177,1.11169 -36.65455,1.29554 l -34.71515,0.23106 v 82.47518 c 0,52.54644 0.2857,83.98169 0.78732,86.62668 1.08071,5.69862 3.31365,10.00983 7.15358,13.81177 4.7753,4.72803 9.1704,6.60692 16.24909,6.94643 11.10531,0.53262 19.36419,-4.10416 23.96837,-13.45657 2.35199,-4.77757 2.55103,-5.81976 3.00647,-15.74245 0.26825,-5.8444 0.8962,-11.36376 1.39545,-12.26525 1.44816,-2.61496 6.0171,-6.26059 9.13636,-7.29003 6.17978,-2.03952 13.59714,1.1262 16.83349,7.18451 1.60444,3.00345 1.74927,4.22596 1.63111,13.76883 -0.0951,7.68095 -0.5463,12.0534 -1.69259,16.40225 -6.13938,23.29195 -26.2242,39.62368 -50.1535,40.7817 -10.14937,0.49117 -17.25339,-1.01275 -26.61454,-5.63428 -12.82559,-6.33189 -22.99689,-17.86557 -27.74088,-31.45662 l -2.27488,-6.51729 -0.21002,-87.85455 -0.21002,-87.85454 H 256.0051 230.44235 l -0.225,78.93333 -0.225,78.93333 -1.79098,6.18288 c -8.07305,27.87017 -29.87237,48.20107 -57.92258,54.02089 -8.98861,1.86495 -16.11152,1.86875 -20.20179,0.0108 z"
     id="path980" />
  <path
     style="fill:#757575;fill-opacity:1;stroke-width:0.775758"
     d="m 233.11515,510.30574 c -10.09534,-0.87779 -27.34411,-3.90976 -38.78788,-6.81809 C 108.86376,481.76788 41.1027,418.66351 13.542994,335.12727 -1.7105494,288.89225 -3.0696491,236.07783 9.789959,189.28485 24.939831,134.15815 57.202409,86.663246 102.82292,52.327651 138.15265,25.737265 175.91229,10.013227 220.31515,3.4010065 233.89098,1.3793726 264.1833,0.57778062 278.21974,1.8687424 353.64413,8.805691 420.36326,47.284105 464.66005,109.39304 c 45.76989,64.17439 58.67136,150.34413 33.79727,225.73423 -21.8116,66.10811 -69.37485,120.39881 -131.91187,150.56977 -27.31395,13.17761 -56.44322,21.31416 -87.16097,24.34631 -7.34735,0.72526 -38.88879,0.90413 -46.26933,0.26239 z m 57.01818,-30.07707 c 4.48,-0.72089 8.25528,-1.61491 8.38952,-1.98672 0.13423,-0.3718 0.70926,-0.49749 1.27785,-0.2793 1.38823,0.53271 18.25991,-3.53829 18.25991,-4.40598 0,-0.37605 0.454,-0.50951 1.0089,-0.29658 2.25197,0.86416 26.97636,-8.65379 40.49413,-15.5887 46.35582,-23.78157 84.27242,-64.541 104.99087,-112.86265 4.38044,-10.2165 10.42838,-28.54874 9.88531,-29.96395 -0.20063,-0.52284 -0.0689,-1.06044 0.29281,-1.19467 0.91057,-0.33795 4.87905,-18.42641 4.42421,-20.16571 -0.20304,-0.77642 -0.0959,-1.41168 0.23819,-1.41168 0.67238,0 2.23646,-11.84028 2.48506,-18.81212 0.35283,-9.89519 0.18508,-33.19845 -0.2862,-39.75758 -0.61122,-8.507 -3.00515,-22.15344 -5.71566,-32.58182 -3.05253,-11.74423 -7.30173,-24.43636 -8.18105,-24.43636 -0.43047,0 -0.56778,-0.34772 -0.30513,-0.77271 1.0935,-1.76932 -10.99406,-26.91877 -19.08459,-39.70749 C 435.90974,116.40753 414.77829,92.565675 397.96364,79.20353 383.00994,67.320233 363.74886,55.577364 347.60266,48.500049 333.98243,42.529927 306.20141,33.845354 303.74239,34.788969 c -0.55433,0.212716 -1.32435,0.07028 -1.71116,-0.316526 -0.38681,-0.386807 -5.0548,-1.485669 -10.37332,-2.441916 -8.6959,-1.563486 -12.20982,-1.740512 -34.88215,-1.757306 -20.62653,-0.01527 -26.83472,0.237355 -34.13334,1.389009 -4.90666,0.774226 -9.02066,1.683489 -9.14221,2.020584 -0.12155,0.337095 -1.08155,0.448395 -2.13334,0.247334 -1.05178,-0.20106 -1.9143,-0.06305 -1.91672,0.306689 -0.002,0.369739 -1.3115,0.73045 -2.90909,0.801579 -3.49461,0.15559 -18.88671,4.555716 -29.41478,8.408785 -4.19279,1.534478 -13.90689,5.883893 -21.58689,9.665368 C 131.8145,64.794223 114.65024,77.173551 95.374305,96.505266 83.206788,108.70799 76.152965,117.34495 66.635654,131.69394 46.029483,162.76131 33.294645,199.36737 30.220259,236.36934 28.799535,253.46855 29.82728,279.43017 32.522125,294.51629 39.23209,332.07958 54.06273,365.15844 78.38021,396.8 c 6.727153,8.75328 26.37797,28.58882 35.65615,35.99135 20.41572,16.28852 48.34137,31.32935 72.01408,38.78697 3.55442,1.11975 6.75369,1.85599 7.1095,1.63608 0.35582,-0.2199 0.76402,-0.0524 0.90714,0.37223 0.34391,1.02047 17.84721,4.99029 30.51474,6.92087 8.75127,1.33372 13.21362,1.50357 33.74545,1.28442 17.44543,-0.1862 25.80026,-0.59683 31.80606,-1.56325 z"
     id="path1389" />
</svg>
