<?xml version="1.0" encoding="UTF-8" standalone="no"?>
<svg
   id="Capa_1"
   enable-background="new 0 0 512 512"
   height="512"
   viewBox="0 0 512 512"
   width="512"
   version="1.1"
   sodipodi:docname="pi.svg"
   inkscape:version="1.1 (c4e8f9ed74, 2021-05-24)"
   xmlns:inkscape="http://www.inkscape.org/namespaces/inkscape"
   xmlns:sodipodi="http://sodipodi.sourceforge.net/DTD/sodipodi-0.dtd"
   xmlns="http://www.w3.org/2000/svg"
   xmlns:svg="http://www.w3.org/2000/svg">
  <defs
     id="defs57" />
  <sodipodi:namedview
     id="namedview55"
     pagecolor="#ffffff"
     bordercolor="#666666"
     borderopacity="1.0"
     inkscape:pageshadow="2"
     inkscape:pageopacity="0.0"
     inkscape:pagecheckerboard="0"
     showgrid="false"
     inkscape:zoom="1.5761719"
     inkscape:cx="140.21313"
     inkscape:cy="256"
     inkscape:window-width="1920"
     inkscape:window-height="1007"
     inkscape:window-x="0"
     inkscape:window-y="0"
     inkscape:window-maximized="1"
     inkscape:current-layer="Capa_1" />
  <path
     style="fill:#757575;stroke-width:0.634449;fill-opacity:1"
     d="M 240.13879,511.28731 C 189.34934,507.63507 142.87337,490.55523 103.41512,461.0416 79.676057,443.28546 58.55573,420.90781 42.528558,396.53036 19.860875,362.05265 7.0478881,326.61522 1.8085943,283.90941 c -1.58488412,-12.91849 -1.58488412,-42.90033 0,-55.81882 C 3.4182244,214.9704 5.0788393,205.76001 7.9308711,194.13416 26.930586,116.68489 83.088496,51.291257 157.41411,20.066941 179.28423,10.879268 201.92989,5.0274328 228.09059,1.803526 c 12.83093,-1.58121545 42.83383,-1.59177826 55.82515,-0.019654 70.83249,8.571685 131.18661,42.573308 174.7683,98.458998 20.9983,26.92654 37.66816,61.61344 45.71695,95.12851 5.22992,21.77731 6.91827,36.57327 6.91827,60.62862 0,19.43126 -0.67284,27.9294 -3.51577,44.40507 -13.62657,78.97026 -65.36513,148.15164 -137.99083,184.51219 -26.45221,13.24348 -54.30004,21.44892 -85.5797,25.21629 -7.90185,0.95171 -36.49845,1.69996 -44.09417,1.15376 z M 171.20146,379.67758 c 26.08883,-5.29856 47.71437,-24.50819 56.24078,-49.9578 3.86031,-11.52227 3.80892,-10.26949 3.81172,-92.91185 l 0.003,-75.34077 H 256 280.74349 v 84.89959 c 0,56.53426 0.22278,86.15735 0.6668,88.66419 3.61712,20.42167 17.57748,36.71965 37.24562,43.48229 6.08678,2.09287 6.35236,2.12565 17.28461,2.13299 10.83714,0.007 11.24709,-0.0414 17.13011,-2.03172 18.95911,-6.41437 33.11696,-22.28062 37.06444,-41.53695 1.50243,-7.32906 1.37886,-24.05758 -0.20288,-27.46665 -5.27385,-11.36652 -21.64411,-11.74366 -27.53871,-0.63444 -1.15166,2.17048 -1.39955,4.00748 -1.71264,12.69201 -0.34884,9.67623 -0.45964,10.35418 -2.35405,14.40243 -2.52818,5.4026 -6.67447,9.55676 -12.10775,12.13072 -3.84744,1.82269 -4.82377,2.01399 -10.27852,2.01399 -5.44794,0 -6.42364,-0.19058 -10.15118,-1.98278 -4.46205,-2.14535 -8.76825,-6.04081 -11.13373,-10.07174 -3.57722,-6.09583 -3.45858,-2.89291 -3.45858,-93.3764 v -83.27584 l 34.41883,-0.17946 c 38.21957,-0.19927 36.71284,-0.0332 41.22097,-4.5414 4.21305,-4.21305 5.58537,-11.78962 3.11705,-17.2093 -1.4762,-3.24129 -5.65843,-7.02044 -8.76945,-7.92425 -1.73836,-0.50502 -32.7548,-0.64934 -110.27489,-0.51312 l -107.85626,0.18954 -6.34448,1.7749 c -8.21791,2.29902 -18.97713,7.50899 -25.37794,12.28886 -10.57772,7.899 -20.09069,19.98502 -24.77613,31.4775 -4.47556,10.9777 -6.939306,25.68748 -5.43114,32.42665 2.63277,11.76444 17.63715,15.98558 25.89258,7.28428 2.82604,-2.97867 3.81509,-5.72704 4.3092,-11.97436 1.67377,-21.16266 14.45954,-36.8075 34.20858,-41.85811 4.3491,-1.11223 7.03821,-1.28342 20.161,-1.28342 h 15.14254 l -0.19796,75.97522 c -0.18428,70.72334 -0.27621,76.23836 -1.32989,79.78191 -4.47232,15.04052 -15.38871,26.43404 -30.03221,31.34484 -2.15988,0.72433 -7.07208,1.59295 -10.91603,1.93027 -9.29806,0.81593 -13.25122,2.92779 -16.11108,8.60685 -3.72906,7.40511 -0.15249,17.607 7.31786,20.87362 3.21003,1.40367 13.97413,1.25326 21.63328,-0.30229 z"
     id="path213" />
  <path
     style="fill:#ffffff;stroke-width:0.634449"
     d="m 149.71779,379.15815 c -7.53267,-4.12958 -10.2592,-12.26114 -6.58405,-19.63621 2.71244,-5.44315 7.94469,-8.34126 15.1034,-8.36567 5.43943,-0.0185 11.82308,-1.72162 18.13794,-4.83892 11.37506,-5.61527 20.30812,-16.70594 23.49622,-29.17126 1.20797,-4.72315 1.2489,-7.36403 1.2489,-80.59826 v -75.71512 h -15.26014 c -17.12175,0 -21.23653,0.58548 -28.83404,4.10268 -15.17978,7.02736 -24.99412,21.31369 -26.10503,38.00003 -0.46011,6.91103 -2.00213,11.02646 -5.17554,13.81275 -3.06068,2.68731 -5.7978,3.72533 -9.7796,3.70877 -4.25721,-0.0177 -7.7979,-1.62795 -10.72943,-4.87956 -3.36626,-3.73382 -3.96516,-6.17555 -3.53625,-14.41743 0.91851,-17.64986 8.14824,-33.77753 21.06563,-46.99201 8.98433,-9.19097 17.93039,-14.9021 29.44966,-18.80057 11.54024,-3.90557 5.46389,-3.71929 121.32234,-3.71929 116.10495,0 108.27427,-0.25645 112.42364,3.68173 3.01393,2.86053 4.48432,6.33403 4.48432,10.59336 0,5.82481 -2.926,10.43668 -8.50772,13.4096 -2.07462,1.10498 -4.48292,1.19514 -36.63941,1.37176 l -34.41883,0.18903 v 84.96188 84.96188 l 1.35572,3.67189 c 3.62039,9.80552 11.85185,15.95293 22.16023,16.54968 10.81517,0.62608 19.74758,-4.61153 24.52792,-14.3822 1.53382,-3.13502 1.7268,-4.38212 2.13636,-13.80592 0.38032,-8.75097 0.66468,-10.80259 1.83127,-13.21244 5.25977,-10.86523 20.38573,-10.88104 26.24239,-0.0274 1.26277,2.34018 1.36426,3.40233 1.30344,13.64064 -0.055,9.24493 -0.29478,11.94646 -1.43336,16.14419 -4.92697,18.1648 -18.32099,32.43253 -36.09587,38.45043 -5.501,1.86244 -7.12499,2.12169 -14.74681,2.35419 -16.71463,0.50988 -29.15977,-4.31588 -40.57918,-15.73511 -9.98693,-9.98681 -14.93983,-21.01783 -15.92951,-35.47804 -0.2995,-4.37594 -0.55515,-44.00087 -0.56812,-88.05539 l -0.0236,-80.09913 H 256 230.93928 l -0.0131,69.94796 c -0.007,38.47137 -0.28755,74.08773 -0.62304,79.14745 -0.74097,11.17527 -2.60512,18.62073 -6.93063,27.6811 -3.9243,8.21998 -7.29711,13.15646 -13.30952,19.47994 -9.53722,10.03066 -22.46434,17.75735 -35.34347,21.12521 -8.69862,2.27467 -21.68026,2.7647 -25.00176,0.94378 z"
     id="path897" />
</svg>
